HIERARCHY
ROOT hip
{
	OFFSET 0.000000 0.000000 0.000000 
	CHANNELS 6 Xposition Yposition Zposition Xrotation Zrotation Yrotation
	JOINT abdomen
	{
		OFFSET 0.000000 3.402643 0.000000 
		CHANNELS 3 Xrotation Zrotation Yrotation
		JOINT chest
		{
			OFFSET 0.000000 8.438565 -0.680529 
			CHANNELS 3 Xrotation Zrotation Yrotation
			JOINT neck
			{
				OFFSET 0.000000 10.207942 -0.272212 
				CHANNELS 3 Xrotation Zrotation Yrotation
				JOINT head
				{
					OFFSET 0.000000 3.130431 0.000000 
					CHANNELS 3 Xrotation Zrotation Yrotation
					End Site
					{
						OFFSET 0.000000 3.130435 0.000000 
					}
				}
			}
			JOINT lCollar
			{
				OFFSET 3.470700 6.669187 -0.816635 
				CHANNELS 3 Yrotation Zrotation Xrotation
				JOINT lShldr
				{
					OFFSET 3.198488 0.000000 0.000000 
					CHANNELS 3 Zrotation Yrotation Xrotation
					JOINT lForeArm
					{
						OFFSET 10.139888 0.000000 0.000000 
						CHANNELS 3 Yrotation Zrotation Xrotation
						JOINT lHand
						{
							OFFSET 8.370511 0.000000 0.000000 
							CHANNELS 3 Zrotation Yrotation Xrotation
							End Site
							{
								OFFSET 4.083176 0.000000 0.000000 
							}
						}
					}
				}
			}
			JOINT rCollar
			{
				OFFSET -3.470700 6.669187 -0.816635 
				CHANNELS 3 Yrotation Zrotation Xrotation
				JOINT rShldr
				{
					OFFSET -3.198488 0.000000 0.000000 
					CHANNELS 3 Zrotation Yrotation Xrotation
					JOINT rForeArm
					{
						OFFSET -10.139888 0.000000 0.000000 
						CHANNELS 3 Yrotation Zrotation Xrotation
						JOINT rHand
						{
							OFFSET -8.370511 0.000000 0.000000 
							CHANNELS 3 Zrotation Yrotation Xrotation
							End Site
							{
								OFFSET -4.083176 0.000000 0.000000 
							}
						}
					}
				}
			}
		}
	}
	JOINT lThigh
	{
		OFFSET 5.308129 -1.633274 1.361059 
		CHANNELS 3 Xrotation Zrotation Yrotation
		JOINT lShin
		{
			OFFSET -2.041588 -20.007561 0.000000 
			CHANNELS 3 Xrotation Zrotation Yrotation
			JOINT lFoot
			{
				OFFSET 0.000000 -19.190928 -1.224953 
				CHANNELS 3 Xrotation Yrotation Zrotation
				End Site
				{
					OFFSET 0.000000 -2.449906 4.627600 
				}
			}
		}
	}
	JOINT rThigh
	{
		OFFSET -5.308129 -1.633274 1.361059 
		CHANNELS 3 Xrotation Zrotation Yrotation
		JOINT rShin
		{
			OFFSET 2.041588 -20.007561 0.000000 
			CHANNELS 3 Xrotation Zrotation Yrotation
			JOINT rFoot
			{
				OFFSET 0.000000 -19.190928 -1.224953 
				CHANNELS 3 Xrotation Yrotation Zrotation
				End Site
				{
					OFFSET 0.000000 -2.449906 4.627600 
				}
			}
		}
	}
}
MOTION
Frames: 6
Frame Time: 0.016667
85.639534 49.157185 -10.154696 6.397315 19.097626 104.696182 35.826809 -1.915153 -3.906551 -20.839844 0.000000 0.000000 -5.120747 9.365423 -3.689929 8.603792 -1.684224 0.126603 -4.754609 -0.109183 -0.002653 -9.316511 9.984157 -4.708488 -8.008433 7.811774 33.142044 -194.597305 -178.585220 -185.922852 4.754609 0.109183 -0.002672 14.124302 -14.721233 -20.136749 2.352694 0.373067 32.532730 155.610352 134.565186 161.106339 10.748569 10.105774 10.901427 32.455902 -8.314875 -0.499705 -20.815037 -7.925185 1.071750 5.708532 -1.580364 3.139454 33.057259 -3.823309 -5.772003 -20.689081 -17.409864 7.829800 
85.648735 49.158718 -10.189425 6.417087 19.077562 104.787827 35.825428 -1.889905 -3.946470 -20.839844 0.000000 0.000000 -5.212099 9.487779 -3.732974 8.603792 -1.684224 0.126603 -4.754609 -0.109183 -0.002653 -9.386095 9.925034 -4.664553 -7.981778 7.928964 33.037857 -194.806656 -178.662003 -185.714111 4.754609 0.109183 -0.002672 14.093692 -14.777861 -20.128263 2.352819 0.372870 32.542496 155.712357 134.590118 161.057358 10.719438 10.066605 10.844568 32.483727 -8.324410 -0.515546 -20.787928 -7.961960 1.220327 5.720682 -1.737344 2.945563 33.052593 -3.696375 -5.794796 -20.721170 -17.262596 7.769388 
85.655884 49.159229 -10.221101 6.436856 19.057499 104.869690 35.862858 -1.859886 -3.997323 -20.839844 0.000000 0.000000 -5.294329 9.626704 -3.797688 8.603792 -1.684224 0.126603 -4.754609 -0.109183 -0.002653 -9.451695 9.827020 -4.609254 -7.826270 8.089964 33.001060 -194.941513 -178.699936 -185.513000 4.754609 0.109183 -0.002672 14.064669 -14.854704 -20.091011 2.354323 0.380279 32.659782 155.760406 134.579865 160.940048 10.712266 10.058849 10.892388 32.523239 -8.370793 -0.542568 -20.768154 -8.072917 1.322793 5.709014 -1.921912 2.766731 33.076916 -3.540246 -5.741278 -20.771006 -17.098856 7.784387 
85.660988 49.158215 -10.245103 6.466503 19.027399 104.924110 35.890625 -1.842559 -4.068285 -20.839844 0.000000 0.000000 -5.367005 9.741838 -3.886890 8.603792 -1.684224 0.126603 -4.754609 -0.109183 -0.002653 -9.560641 9.738534 -4.481776 -7.630152 8.337608 33.138748 -194.773483 -178.679642 -185.354034 4.754609 0.109183 -0.002672 14.063131 -14.903888 -20.044771 2.347875 0.382008 32.796722 155.645203 134.525116 160.879379 10.726029 10.084274 11.016938 32.517204 -8.439996 -0.560210 -20.748299 -8.266036 1.330742 5.707194 -1.969578 2.721861 33.113548 -3.555251 -5.715733 -20.762091 -17.116096 7.693229 
85.666611 49.162807 -10.265023 6.475697 18.997961 104.962929 35.908524 -1.830001 -4.153652 -20.839844 0.000000 0.000000 -5.408522 9.792243 -3.946352 8.603792 -1.684224 0.126603 -4.754609 -0.109183 -0.002653 -9.660435 9.659329 -4.459708 -7.431839 8.495960 33.308189 -194.417236 -178.875595 -185.503448 4.754609 0.109183 -0.002672 14.219720 -14.793317 -19.990856 2.354574 0.379886 32.679302 155.186874 134.671570 161.305923 10.769109 10.135848 11.145102 32.466854 -8.527397 -0.558787 -20.719488 -8.441653 1.316335 5.736565 -1.843378 2.865631 33.037991 -3.745242 -5.808735 -20.671284 -17.274977 7.712026 
85.670181 49.177624 -10.282395 6.464448 18.969177 104.993027 35.906853 -1.818101 -4.237803 -20.839844 0.000000 0.000000 -5.387888 9.755105 -3.930187 8.603792 -1.684224 0.126603 -4.754609 -0.109183 -0.002653 -10.035276 9.517526 -4.498783 -7.343364 8.901066 32.954041 -194.476791 -179.205978 -185.143417 4.754609 0.109183 -0.002672 14.815045 -14.435813 -19.908401 2.377433 0.377807 31.868078 154.482773 135.101730 162.797134 10.799775 10.185536 11.273091 32.392776 -8.586972 -0.537686 -20.665726 -8.605533 1.343930 5.782926 -1.734941 2.929577 32.871719 -3.945866 -5.904715 -20.554512 -17.409698 7.804582 
